# File created by Blade
# Date/Time:  Thu Jan 22 19:34:22 2015
#---------------------------------------------------------
:version 1.10
:name HOM
:units
  mass 1.0
  length 1.000000
  angle deg
:documentation
     Acclaim Skeleton File
:root
   axis xyz
   order TX TY TZ RX RY RZ
   position 0.000000 0.000000 0.000000
   orientation 0 0 0
:bonedata
   begin
      id 1
      name RightUpLeg_dum
      direction -1.000000 0.000000 0.000000
      length 4.478084
      axis 0.0 0.0 0.0 xyz
   end
   begin
      id 2
      name LeftUpLeg_dum
      direction 1.000000 0.000000 0.000000
      length 4.478084
      axis 0.0 0.0 0.0 xyz
   end
   begin
      id 3
      name Spine_dum
      direction 0.000000 1.000000 0.000000
      length 6.068208
      axis 0.0 0.0 0.0 xyz
   end
   begin
      id 4
      name RightUpLeg
      direction 0.000000 -1.000000 0.000000
      length 16.405774
      axis 0.0 0.0 0.0 xyz
      dof rx ry rz
   end
   begin
      id 5
      name RightLeg
      direction 0.000000 -1.000000 0.000000
      length 14.644143
      axis 0.0 0.0 0.0 xyz
      dof rx ry rz
   end
   begin
      id 6
      name RightFoot
      direction 0.000000 -0.258819 0.965926
      length 5.806150
      axis 15.0 0.0 0.0 xyz
      dof rx ry rz
   end
   begin
      id 7
      name RightToeBase
      direction 0.000000 0.000000 1.000000
      length 2.952750
      axis 0.0 0.0 0.0 xyz
      dof rx ry rz
   end
   begin
      id 8
      name LeftUpLeg
      direction 0.000000 -1.000000 0.000000
      length 16.405774
      axis 0.0 0.0 0.0 xyz
      dof rx ry rz
   end
   begin
      id 9
      name LeftLeg
      direction 0.000000 -1.000000 0.000000
      length 14.644143
      axis 0.0 0.0 0.0 xyz
      dof rx ry rz
   end
   begin
      id 10
      name LeftFoot
      direction 0.000000 -0.258819 0.965926
      length 5.806150
      axis 15.0 0.0 0.0 xyz
      dof rx ry rz
   end
   begin
      id 11
      name LeftToeBase
      direction 0.000000 0.000000 1.000000
      length 2.952750
      axis 0.0 0.0 0.0 xyz
      dof rx ry rz
   end
   begin
      id 12
      name Spine
      direction 0.000000 1.000000 0.000000
      length 0.000000
      axis 0.0 0.0 0.0 xyz
      dof rx ry rz
   end
   begin
      id 13
      name Spine_dum1
      direction 0.000000 1.000000 0.000000
      length 10.013923
      axis 0.0 0.0 0.0 xyz
   end
   begin
      id 14
      name Spine_dum2
      direction 0.000000 1.000000 0.000000
      length 10.013923
      axis 0.0 0.0 0.0 xyz
   end
   begin
      id 15
      name Spine_dum3
      direction 0.000000 1.000000 0.000000
      length 15.777476
      axis 0.0 0.0 0.0 xyz
   end
   begin
      id 16
      name RightShoulder
      direction -1.000000 0.000000 0.000000
      length 7.190220
      axis 0.0 0.0 90.0 xyz
      dof rx ry rz
   end
   begin
      id 17
      name RightArm
      direction -1.000000 0.000000 0.000000
      length 10.177469
      axis 0.0 0.0 90.0 xyz
      dof rx ry rz
   end
   begin
      id 18
      name RightForeArm
      direction -1.000000 0.000000 0.000000
      length 8.392114
      axis 0.0 0.0 90.0 xyz
      dof ry rz rx
   end
   begin
      id 19
      name RightHand
      direction -1.000000 0.000000 0.000000
      length 0.000000
      axis 0.0 0.0 90.0 xyz
      dof rx ry rz
   end
   begin
      id 20
      name RightHand_dum1
      direction -1.000000 0.000000 0.000000
      length 3.937000
      axis 0.0 0.0 90.0 xyz
   end
   begin
      id 21
      name RightHand_dum2
      direction 0.000000 0.000000 0.000000
      length 0.000000
      axis 0.0 0.0 90.0 xyz
   end
   begin
      id 22
      name RightHandThumb1
      direction 0.000000 0.000000 1.000000
      length 3.937000
      axis 0.0 0.0 90.0 xyz
      dof rx rz ry
   end
   begin
      id 23
      name LeftShoulder
      direction 1.000000 0.000000 0.000000
      length 7.190220
      axis 0.0 0.0 -90.0 xyz
      dof rx ry rz
   end
   begin
      id 24
      name LeftArm
      direction 1.000000 0.000000 0.000000
      length 10.177469
      axis 0.0 0.0 -90.0 xyz
      dof rx ry rz
   end
   begin
      id 25
      name LeftForeArm
      direction 1.000000 0.000000 0.000000
      length 8.392114
      axis 0.0 0.0 -90.0 xyz
      dof ry rz rx
   end
   begin
      id 26
      name LeftHand
      direction 1.000000 0.000000 0.000000
      length 0.000000
      axis 0.0 0.0 -90.0 xyz
      dof rx ry rz
   end
   begin
      id 27
      name LeftHand_dum1
      direction 1.000000 0.000000 0.000000
      length 3.937000
      axis 0.0 0.0 -90.0 xyz
   end
   begin
      id 28
      name LeftHand_dum2
      direction 0.000000 0.000000 0.000000
      length 0.000000
      axis 0.0 0.0 -90.0 xyz
   end
   begin
      id 29
      name LeftHandThumb1
      direction 0.000000 0.000000 1.000000
      length 3.937000
      axis 0.0 0.0 -90.0 xyz
      dof rx rz ry
   end
   begin
      id 30
      name Head
      direction 0.000000 1.000000 0.000000
      length 4.527550
      axis 0.0 0.0 0.0 xyz
      dof rx ry rz
   end
:hierarchy
   begin
      root RightUpLeg_dum LeftUpLeg_dum Spine_dum
      RightUpLeg_dum RightUpLeg
      LeftUpLeg_dum LeftUpLeg
      Spine_dum Spine
      RightUpLeg RightLeg
      RightLeg RightFoot
      RightFoot RightToeBase
      LeftUpLeg LeftLeg
      LeftLeg LeftFoot
      LeftFoot LeftToeBase
      Spine Spine_dum1 Spine_dum2 Spine_dum3
      Spine_dum1 RightShoulder
      Spine_dum2 LeftShoulder
      Spine_dum3 Head
      RightShoulder RightArm
      RightArm RightForeArm
      RightForeArm RightHand
      RightHand RightHand_dum1 RightHand_dum2
      RightHand_dum2 RightHandThumb1
      LeftShoulder LeftArm
      LeftArm LeftForeArm
      LeftForeArm LeftHand
      LeftHand LeftHand_dum1 LeftHand_dum2
      LeftHand_dum2 LeftHandThumb1
   end

# File created by Blade
# Date/Time:  Thu Jan 22 19:34:15 2015
# Frame Rate: 120.000 fps
#------------------------------------------------------
:FULLY-SPECIFIED
:DEGREES
155
root -3.270848 33.008890 -1.448012 9.200692 -2.029496 2.550857
RightUpLeg -2.054816 -3.944670 -3.398089
RightLeg -1.237624 -0.000000 0.000000
RightFoot -12.134274 -3.657031 4.753308
RightToeBase 7.314836 -0.000000 -0.000000
LeftUpLeg -1.814106 2.605580 2.142445
LeftLeg 0.877410 -0.000000 -0.000000
LeftFoot -11.982236 3.236595 -18.283357
LeftToeBase 8.559437 -0.000000 -0.000000
Spine -10.972380 -2.190221 -1.227304
RightShoulder -19.820220 -12.958709 -24.455896
RightArm 20.832004 26.589682 41.547153
RightForeArm -12.387350 -0.000000 14.285726
RightHand 9.530927 -0.000000 7.481046
RightHandThumb1 -24.326973 -0.000000 -32.862282
LeftShoulder -24.192232 6.910445 29.819305
LeftArm 16.216708 -26.002732 -37.485173
LeftForeArm 20.917916 -0.000000 2.581684
LeftHand 0.918576 -0.000000 -10.628438
LeftHandThumb1 -26.253704 0.000000 33.147579
Head 3.337963 6.584401 1.801285
156
root -3.270298 33.008143 -1.446758 9.185829 -2.030871 2.545375
RightUpLeg -2.044980 -3.942237 -3.395691
RightLeg -1.222224 -0.000000 0.000000
RightFoot -12.145183 -3.643532 4.788794
RightToeBase 7.279303 -0.000000 -0.000000
LeftUpLeg -1.802148 2.640322 2.140716
LeftLeg 0.866366 -0.000000 -0.000000
LeftFoot -12.013246 3.250681 -18.279019
LeftToeBase 8.765072 -0.000000 -0.000000
Spine -11.004377 -2.193864 -1.211262
RightShoulder -19.811942 -12.957675 -24.474279
RightArm 20.846389 26.600241 41.582632
RightForeArm -12.495688 0.000000 14.321141
RightHand 9.539683 -0.000000 7.381165
RightHandThumb1 -24.326973 -0.000000 -32.862282
LeftShoulder -24.178231 6.909111 29.821800
LeftArm 16.229445 -26.017814 -37.500205
LeftForeArm 20.951578 -0.000000 2.590797
LeftHand 0.918095 -0.000000 -10.641963
LeftHandThumb1 -26.253704 0.000000 33.147579
Head 3.745058 6.546730 1.804705
157
root -3.270298 33.008010 -1.444926 9.160567 -2.036168 2.544194
RightUpLeg -2.017236 -3.935146 -3.396838
RightLeg -1.224339 -0.000000 0.000000
RightFoot -12.152222 -3.652950 4.768815
RightToeBase 7.351904 -0.000000 -0.000000
LeftUpLeg -1.777066 2.620104 2.140223
LeftLeg 0.882339 -0.000000 -0.000000
LeftFoot -12.024268 3.256606 -18.338569
LeftToeBase 8.663897 -0.000000 -0.000000
Spine -11.027835 -2.190806 -1.211599
RightShoulder -19.798097 -12.934474 -24.488564
RightArm 20.833709 26.563472 41.585241
RightForeArm -12.491263 -0.000000 14.344317
RightHand 9.487936 -0.000000 7.367015
RightHandThumb1 -24.326973 -0.000000 -32.862282
LeftShoulder -24.159032 6.900171 29.841410
LeftArm 16.245370 -26.008733 -37.515525
LeftForeArm 20.943574 -0.000000 2.579589
LeftHand 0.924856 -0.000000 -10.665237
LeftHandThumb1 -26.253704 0.000000 33.147579
Head 4.180354 6.506088 1.848422
158
root -3.270824 33.008712 -1.443418 9.139920 -2.045600 2.546327
RightUpLeg -1.998240 -3.925792 -3.399938
RightLeg -1.220793 -0.000000 0.000000
RightFoot -12.144193 -3.648148 4.783998
RightToeBase 7.345793 -0.000000 -0.000000
LeftUpLeg -1.755328 2.567316 2.147963
LeftLeg 0.906239 -0.000000 -0.000000
LeftFoot -12.016361 3.278378 -18.302320
LeftToeBase 8.556970 -0.000000 -0.000000
Spine -11.054280 -2.173594 -1.226262
RightShoulder -19.813941 -12.956615 -24.472544
RightArm 20.861980 26.561055 41.604883
RightForeArm -12.362154 -0.000000 14.392022
RightHand 9.225628 0.000000 7.543377
RightHandThumb1 -24.326973 -0.000000 -32.862282
LeftShoulder -24.138106 6.908156 29.865044
LeftArm 16.275109 -26.015317 -37.555169
LeftForeArm 20.985779 -0.000000 2.591692
LeftHand 0.942929 -0.000000 -10.658334
LeftHandThumb1 -26.253704 0.000000 33.147579
Head 4.637599 6.502026 1.914659
159
root -3.271144 33.008526 -1.442007 9.115982 -2.050701 2.550864
RightUpLeg -1.976436 -3.932572 -3.407535
RightLeg -1.212837 -0.000000 0.000000
RightFoot -12.152992 -3.637472 4.774013
RightToeBase 7.312824 -0.000000 -0.000000
LeftUpLeg -1.734093 2.563619 2.146132
LeftLeg 0.913668 -0.000000 -0.000000
LeftFoot -12.032876 3.306719 -18.223520
LeftToeBase 8.612230 -0.000000 -0.000000
Spine -11.075880 -2.179864 -1.235131
RightShoulder -19.803759 -12.971024 -24.455371
RightArm 20.878734 26.547597 41.596811
RightForeArm -12.351264 0.000000 14.416906
RightHand 9.186824 -0.000000 7.581388
RightHandThumb1 -24.326973 -0.000000 -32.862282
LeftShoulder -24.129690 6.924699 29.880032
LeftArm 16.297343 -25.999515 -37.576440
LeftForeArm 20.990035 -0.000000 2.593040
LeftHand 0.939924 0.000000 -10.669076
LeftHandThumb1 -26.253704 0.000000 33.147579
Head 5.059650 6.499898 1.946470
160
root -3.270927 33.008086 -1.441533 9.095596 -2.052510 2.542558
RightUpLeg -1.960789 -3.920486 -3.401234
RightLeg -1.200209 -0.000000 0.000000
RightFoot -12.156209 -3.648572 4.778920
RightToeBase 7.289893 -0.000000 -0.000000
LeftUpLeg -1.718557 2.577652 2.144342
LeftLeg 0.918398 -0.000000 -0.000000
LeftFoot -12.057228 3.297795 -18.368470
LeftToeBase 8.624933 -0.000000 -0.000000
Spine -11.095291 -2.173785 -1.220620
RightShoulder -19.803452 -12.978393 -24.462037
RightArm 20.882389 26.501173 41.596213
RightForeArm -12.399886 -0.000000 14.433290
RightHand 9.249444 -0.000000 7.494037
RightHandThumb1 -24.326973 -0.000000 -32.862282
LeftShoulder -24.119320 6.942708 29.875807
LeftArm 16.337054 -25.985426 -37.601438
LeftForeArm 21.002477 0.000000 2.593366
LeftHand 0.932230 -0.000000 -10.683466
LeftHandThumb1 -26.253704 0.000000 33.147579
Head 5.494377 6.442459 1.967095
